<svg width="53" height="57" viewBox="0 0 53 57" fill="none" xmlns="http://www.w3.org/2000/svg">
<path d="M32.486 1H7.2972C5.62708 1 4.02536 1.57512 2.84441 2.59883C1.66345 3.62254 1 5.011 1 6.45875V50.1287C1 51.5765 1.66345 52.9649 2.84441 53.9886C4.02536 55.0123 5.62708 55.5875 7.2972 55.5875H45.0804C46.7505 55.5875 48.3522 55.0123 49.5332 53.9886C50.7141 52.9649 51.3776 51.5765 51.3776 50.1287V17.3762L32.486 1Z" stroke="white" stroke-width="2" stroke-linecap="round" stroke-linejoin="round"/>
<path d="M32.4861 1V17.3762H51.3777" stroke="white" stroke-width="2" stroke-linecap="round" stroke-linejoin="round"/>
<path d="M38.7832 31.0231H13.5944" stroke="white" stroke-width="2" stroke-linecap="round" stroke-linejoin="round"/>
<path d="M38.7832 41.9406H13.5944" stroke="white" stroke-width="2" stroke-linecap="round" stroke-linejoin="round"/>
<path d="M19.8916 20.1057H16.743H13.5944" stroke="white" stroke-width="2" stroke-linecap="round" stroke-linejoin="round"/>
</svg>
